<svg id="Layer_1" data-name="Layer 1" xmlns="http://www.w3.org/2000/svg" xmlns:xlink="http://www.w3.org/1999/xlink" viewBox="0 0 529 202"><defs><style>.cls-1{fill:none;}.cls-2,.cls-3{stroke-miterlimit:10;}.cls-2{fill:url(#linear-gradient);stroke:url(#linear-gradient-2);}.cls-3{fill:url(#linear-gradient-3);stroke:url(#linear-gradient-4);}.cls-4{clip-path:url(#clip-path);}.cls-5{fill:url(#linear-gradient-5);}</style><linearGradient id="linear-gradient" x1="23.55" y1="-205.15" x2="102.14" y2="-205.15" gradientTransform="translate(73.67 335.27) rotate(-3.42)" gradientUnits="userSpaceOnUse"><stop offset="0" stop-color="#ed2d57"/><stop offset="1" stop-color="#f27555"/></linearGradient><linearGradient id="linear-gradient-2" x1="83.02" y1="127.07" x2="164.13" y2="127.07" gradientTransform="matrix(1, 0, 0, 1, 0, 0)" xlink:href="#linear-gradient"/><linearGradient id="linear-gradient-3" x1="28.44" y1="103.12" x2="133.85" y2="103.12" gradientTransform="matrix(1, 0, 0, 1, 0, 0)" xlink:href="#linear-gradient"/><linearGradient id="linear-gradient-4" x1="27.94" y1="103.12" x2="134.35" y2="103.12" gradientTransform="matrix(1, 0, 0, 1, 0, 0)" xlink:href="#linear-gradient"/><clipPath id="clip-path"><path class="cls-1" d="M185,105c0-13.76,8.47-20.86,20.86-20.86a43.54,43.54,0,0,1,14.21,2.64v13.3h-8.57V92.47a18.53,18.53,0,0,0-4.55-.55c-7.56,0-11.29,4.83-11.29,12.75,0,7.74,3.55,12.93,11.65,12.93a27.76,27.76,0,0,0,12.39-3.46v8.11a29.56,29.56,0,0,1-14,3.28C192.82,125.53,185,118.33,185,105Zm40.89,11.47h6V93.2h-6v-8h15.94v7.2c2-3.74,5.92-8.2,13-8.2h.82V94.56H254c-5.82,0-9.65,1.19-11.84,2.55v19.4H249v8H225.88Zm33.34-11.66c0-11.93,6.83-20.67,19.3-20.67s18,8.74,18,19.58a24.56,24.56,0,0,1-.37,4.37H269.6c1,6.19,4.73,9.56,11.84,9.56a26.42,26.42,0,0,0,12.66-3.64V122a28.85,28.85,0,0,1-14.21,3.55C266.05,125.53,259.22,116.78,259.22,104.85Zm10.29-3.91H286.9c-.36-4.65-2.18-9.29-8.19-9.29S270.24,96,269.51,100.94Zm32,3.91c0-12.66,7.38-20.67,18.49-20.67a17.49,17.49,0,0,1,10.38,3.1V73h-7.46V64.82l17.75.1v51.59h6v8h-15.4v-4.38a15.72,15.72,0,0,1-12.2,5.38C308.49,125.53,301.47,117.15,301.47,104.85Zm28.87,9.57v-20A12.55,12.55,0,0,0,322.69,92C315.5,92,312,96.93,312,104.67c0,6.92,2.82,13,9.92,13A12.66,12.66,0,0,0,330.34,114.42Zm20.86,2.09h6V93.2h-6v-8h16.3v31.33h6v8H351.2Zm10.65-51.18a7.1,7.1,0,1,1-7.1,7.1A7.11,7.11,0,0,1,361.85,65.33ZM383,113.69V93.29h-6.83V85.18H383v-10h10.29v10H404v8.11H393.27v19.85c0,3.73,2.19,4.46,5.29,4.46a18.89,18.89,0,0,0,6.1-1v7.56a35.3,35.3,0,0,1-9.38,1.37C385.53,125.53,383,120.88,383,113.69Zm25.32-.18c0-9.48,8.11-12.21,18.31-12.21h6.46V98.84c0-4.73-1.91-6.83-8.47-6.83a49.59,49.59,0,0,0-13,2V86.36a56.91,56.91,0,0,1,15.21-2.18c10.56,0,16.57,3.73,16.57,14.48v17.85h5.83v8H433.62v-4.47a16.93,16.93,0,0,1-12.48,5.47C413.76,125.53,408.3,121.25,408.3,113.51Zm24.77.45v-6.28h-6c-5.37,0-8.47,1.36-8.47,5.37,0,2.46,1.19,5.19,5.65,5.19C428.06,118.24,431,116.15,433.07,114Zm18.76,20.58h6V93.2h-6v-8h15.58v4.28a15.64,15.64,0,0,1,12.11-5.28c10.66,0,17.49,8.1,17.49,20.4,0,12.66-7.2,21-18.49,21a17.56,17.56,0,0,1-10.38-3.1v12.11h7.19v8.11h-23.5Zm16.31-39.16v19.86a11.7,11.7,0,0,0,7.65,2.45c7.19,0,10.65-5,10.65-12.75,0-6.92-2.82-12.93-9.93-12.93A12.12,12.12,0,0,0,468.14,95.38Z"/></clipPath><linearGradient id="linear-gradient-5" x1="169.41" y1="98.43" x2="516.52" y2="98.43" gradientTransform="matrix(1, 0, 0, 1, 0, 0)" xlink:href="#linear-gradient"/></defs><title>Logo for website-01</title><g id="Hand"><path class="cls-2" d="M157.21,111.54l-15.5-18.15a7.36,7.36,0,0,0-11.1.18,8.6,8.6,0,0,0-1.92,3.76,7.34,7.34,0,0,0-10.31.91,8.87,8.87,0,0,0-1.92,3.76c0-.1-.72-.52-.81-.57a6.13,6.13,0,0,0-.86-.41,8.31,8.31,0,0,0-1.55-.44c-2.65-.47-5.79.32-7.41,2.68a9.36,9.36,0,0,0-1.12,2.37,8,8,0,0,0-.34,2.55s-1.58-1.72-1.92-2.07c-2.33-2.44-4.46-5.38-7.27-7.26a7.62,7.62,0,0,0-4-1.42,7,7,0,0,0-4.21,1.25,7.73,7.73,0,0,0-3.41,6.45,9.27,9.27,0,0,0,1.7,4.83c2.17,3.27,29.2,31.44,29.2,31.44l-16.51,3.08c-4.46.76-7.77,5.08-7.68,10.06.07,3.65,3.79,7.79,7.19,8.4,3.25.58,7.33-.05,10.65-.26s20.32-1.54,25.68-1.88c.27,0,.54-.05.81-.05A22.69,22.69,0,0,0,151,153.23l6.33-7.18a26.53,26.53,0,0,0,5.4-24.21A25.66,25.66,0,0,0,157.21,111.54Zm-2.59,30.66-6.1,7.25c-3.48,4.15-8.35,6-13.51,6.48-5.32.48-10.63,1-15.94,1.51-4,.38-8,1-12,1.3-3.39.28-8.25,1.28-10.9-1.56a4.5,4.5,0,0,1-1.15-4c1-4.18,5.73-3.81,12.76-5.34q5.85-1.34,11.71-2.59a2.12,2.12,0,0,0,1.57-1.59,2.4,2.4,0,0,0-.59-2.27c-.86-.9-30.13-31.8-31.31-33.31-1.36-1.73-1.74-4,.09-5.5,2.56-2.09,5.35,1.18,7.07,2.89,2.3,2.28,18,18.41,18.55,19a1.92,1.92,0,0,0,2.89-.12,2.42,2.42,0,0,0-.12-3.19L109,111.57a3.57,3.57,0,0,1-.24-5.15,3.5,3.5,0,0,1,5.27-.2l8.73,8.89a1.93,1.93,0,0,0,2.9-.12,2.41,2.41,0,0,0-.13-3.19L121,107.26a4.41,4.41,0,0,1-.2-5.83,3.5,3.5,0,0,1,5.27-.2l4.48,4.55a1.92,1.92,0,0,0,2.88-.13,2.42,2.42,0,0,0-.12-3.19l-.19-.19a4.41,4.41,0,0,1-.2-5.83,3.5,3.5,0,0,1,5.21-.28l16.06,18a22,22,0,0,1,3.92,22.24A19.87,19.87,0,0,1,154.62,142.2Z"/></g><g id="Circle"><path class="cls-3" d="M81.86,164.16a1.77,1.77,0,0,1-.32,0,61.28,61.28,0,0,1-35.9-103.3,60.67,60.67,0,0,1,84.08-3.53,11.79,11.79,0,0,1-.48,18.35l-.28.23a11.75,11.75,0,0,1-15-.6A37.31,37.31,0,1,0,74,137.35a6.44,6.44,0,0,0,5.87-.24,6.75,6.75,0,0,0-.48-12.05A21.74,21.74,0,0,1,70.42,118C58,99.67,71.6,79.85,88.86,79.43a23.9,23.9,0,0,1,19.48,9.32,2.45,2.45,0,1,1-3.87,3,18.87,18.87,0,0,0-18.08-7.19A18.68,18.68,0,0,0,72.46,94.84a19.21,19.21,0,0,0,9,25.77,11.67,11.67,0,0,1-.18,21.28c-2.79,1.24-7.42.85-10.16-.49a42.23,42.23,0,1,1,46.16-69.8A6.88,6.88,0,0,0,126,72l.29-.23A6.94,6.94,0,0,0,129,66.49a6.75,6.75,0,0,0-2.25-5.3A56.2,56.2,0,0,0,33.33,103a56.33,56.33,0,0,0,48.84,56.32,2.45,2.45,0,0,1-.31,4.88Z"/></g><g class="cls-4"><rect class="cls-5" x="169.41" y="37.94" width="347.11" height="120.98"/></g></svg>