<svg width="140" height="57" viewBox="0 0 140 57" fill="none" xmlns="http://www.w3.org/2000/svg">
<path d="M0.588 28.172H1.232C1.64267 28.172 1.932 28.088 2.1 27.92C2.28667 27.7333 2.38 27.4533 2.38 27.08V16.748C2.38 16.0573 2.00667 15.712 1.26 15.712H0.588V12.884H8.54V15.712H7.896C7.14933 15.712 6.776 16.0573 6.776 16.748V28.172H9.604C10.3507 28.172 10.724 27.808 10.724 27.08V25.988H14.728V31H0.588V28.172ZM21.3209 31.42C18.9689 31.42 17.1302 30.832 15.8049 29.656C14.4982 28.4613 13.8449 26.7067 13.8449 24.392C13.8449 21.9653 14.4609 20.1547 15.6929 18.96C16.9435 17.7467 18.7169 17.14 21.0129 17.14C23.2529 17.14 24.9515 17.756 26.1089 18.988C27.2849 20.2013 27.8729 21.8347 27.8729 23.888V25.232H18.2409C18.2409 26.4453 18.4929 27.3227 18.9969 27.864C19.5009 28.4053 20.2942 28.676 21.3769 28.676C22.2915 28.676 23.0662 28.536 23.7009 28.256V27.22H27.3969V29.516C26.6875 30.1507 25.8382 30.6267 24.8489 30.944C23.8782 31.2613 22.7022 31.42 21.3209 31.42ZM23.5049 22.852C23.5049 21.8813 23.2902 21.1533 22.8609 20.668C22.4315 20.164 21.7969 19.912 20.9569 19.912C20.0609 19.912 19.3795 20.164 18.9129 20.668C18.4649 21.172 18.2409 21.9 18.2409 22.852H23.5049ZM29.508 28.144H30.04C30.7867 28.144 31.16 27.7893 31.16 27.08V21.48C31.16 21.1253 31.076 20.864 30.908 20.696C30.74 20.528 30.4693 20.444 30.096 20.444H29.508V17.56H33.932L34.128 19.38C35.304 17.8867 37.012 17.14 39.252 17.14C40.876 17.14 42.0613 17.5413 42.808 18.344C43.5733 19.128 43.956 20.2947 43.956 21.844V27.108C43.956 27.7987 44.32 28.144 45.048 28.144H45.692V31H39.532V21.872C39.532 21.1627 39.3827 20.6587 39.084 20.36C38.804 20.0427 38.3467 19.884 37.712 19.884C37.04 19.884 36.5173 20.0613 36.144 20.416C35.7707 20.7707 35.584 21.312 35.584 22.04V27.108C35.584 27.4627 35.6587 27.724 35.808 27.892C35.9573 28.06 36.2093 28.144 36.564 28.144H37.124V31H29.508V28.144ZM53.1898 31.42C50.6885 31.42 48.6445 30.8227 47.0578 29.628V27.22H51.0618V28.172C51.5098 28.4707 52.1352 28.62 52.9378 28.62C53.5538 28.62 54.0112 28.5453 54.3098 28.396C54.6272 28.228 54.7858 27.948 54.7858 27.556C54.7858 27.1827 54.6552 26.9027 54.3938 26.716C54.1512 26.5293 53.6378 26.2773 52.8538 25.96C52.9285 25.9973 52.4245 25.7827 51.3418 25.316C50.3898 24.9053 49.6338 24.532 49.0738 24.196C48.5138 23.86 48.0565 23.44 47.7018 22.936C47.3658 22.432 47.1978 21.8067 47.1978 21.06C47.1978 19.772 47.7112 18.8013 48.7378 18.148C49.7832 17.476 51.1925 17.14 52.9658 17.14C54.1605 17.14 55.2712 17.2893 56.2978 17.588C57.3432 17.8867 58.2485 18.3347 59.0138 18.932V21.256H55.1498V20.416C54.7018 20.0987 54.1325 19.94 53.4418 19.94C52.2845 19.94 51.7058 20.3133 51.7058 21.06C51.7058 21.4893 51.9298 21.8347 52.3778 22.096C52.8258 22.3573 53.5445 22.6747 54.5338 23.048L55.2058 23.3C56.6245 23.8413 57.6605 24.4107 58.3138 25.008C58.9672 25.6053 59.2938 26.4547 59.2938 27.556C59.2938 30.132 57.2592 31.42 53.1898 31.42ZM67.9821 31.42C66.0781 31.42 64.6501 31.0093 63.6981 30.188C62.7648 29.3667 62.2981 28.1813 62.2981 26.632V20.332H60.2261V17.56H62.2981V14.788L66.7221 13.584V17.56H70.3901V20.332H66.7221V27.024C66.7221 27.6027 66.8435 28.032 67.0861 28.312C67.3475 28.5733 67.7301 28.704 68.2341 28.704C68.8501 28.704 69.3355 28.536 69.6901 28.2V26.996H73.2461V29.6C71.8648 30.8133 70.1101 31.42 67.9821 31.42ZM78.6004 31.42C76.9951 31.42 75.7818 31.0933 74.9604 30.44C74.1578 29.768 73.7564 28.8253 73.7564 27.612C73.7564 26.2307 74.2138 25.204 75.1284 24.532C76.0431 23.8413 77.3871 23.44 79.1604 23.328L82.1284 23.132V21.564C82.1284 20.9853 81.9978 20.5747 81.7364 20.332C81.4751 20.0707 81.0458 19.94 80.4484 19.94C79.7951 19.94 79.2071 20.1173 78.6844 20.472V21.48H74.9884V18.708C76.7058 17.6627 78.5818 17.14 80.6164 17.14C82.6324 17.14 84.1258 17.5787 85.0964 18.456C86.0858 19.3333 86.5804 20.5187 86.5804 22.012V27.22C86.5804 27.5747 86.6458 27.836 86.7764 28.004C86.9258 28.1533 87.1591 28.228 87.4764 28.228H87.8964V31H84.1724L83.7804 29.236C83.1084 30.0387 82.3898 30.608 81.6244 30.944C80.8778 31.2613 79.8698 31.42 78.6004 31.42ZM79.6084 28.676C80.4298 28.676 81.0551 28.4987 81.4844 28.144C81.9138 27.7707 82.1284 27.2293 82.1284 26.52V25.456L79.6084 25.652C78.9551 25.708 78.4884 25.8573 78.2084 26.1C77.9471 26.3427 77.8164 26.7253 77.8164 27.248C77.8164 28.2 78.4138 28.676 79.6084 28.676ZM89.5421 28.032H92.7901V31H89.5421V28.032ZM99.29 31.42C97.6846 31.42 96.4713 31.0933 95.65 30.44C94.8473 29.768 94.446 28.8253 94.446 27.612C94.446 26.2307 94.9033 25.204 95.818 24.532C96.7326 23.8413 98.0766 23.44 99.85 23.328L102.818 23.132V21.564C102.818 20.9853 102.687 20.5747 102.426 20.332C102.165 20.0707 101.735 19.94 101.138 19.94C100.485 19.94 99.8966 20.1173 99.374 20.472V21.48H95.678V18.708C97.3953 17.6627 99.2713 17.14 101.306 17.14C103.322 17.14 104.815 17.5787 105.786 18.456C106.775 19.3333 107.27 20.5187 107.27 22.012V27.22C107.27 27.5747 107.335 27.836 107.466 28.004C107.615 28.1533 107.849 28.228 108.166 28.228H108.586V31H104.862L104.47 29.236C103.798 30.0387 103.079 30.608 102.314 30.944C101.567 31.2613 100.559 31.42 99.29 31.42ZM100.298 28.676C101.119 28.676 101.745 28.4987 102.174 28.144C102.603 27.7707 102.818 27.2293 102.818 26.52V25.456L100.298 25.652C99.6446 25.708 99.178 25.8573 98.898 26.1C98.6366 26.3427 98.506 26.7253 98.506 27.248C98.506 28.2 99.1033 28.676 100.298 28.676ZM111.38 12.296H115.916V15.656H111.38V12.296ZM109.672 28.144H110.344C110.736 28.144 111.016 28.06 111.184 27.892C111.37 27.7053 111.464 27.4253 111.464 27.052V21.536C111.464 21.1627 111.38 20.8827 111.212 20.696C111.044 20.5093 110.764 20.416 110.372 20.416H109.672V17.56H115.888V27.108C115.888 27.7987 116.252 28.144 116.98 28.144H117.652V31H109.672V28.144Z" fill="white"/>
<path d="M92.1518 50.0972L90.0878 47.7208C89.8983 47.513 89.6266 47.3961 89.3429 47.4005C89.0592 47.4049 88.7913 47.53 88.6085 47.7436C88.4825 47.8849 88.3946 48.0552 88.3529 48.2387C87.9398 47.8994 87.3256 47.9535 86.9802 48.3595C86.855 48.5015 86.7669 48.6714 86.7236 48.8546C86.7236 48.8427 86.623 48.7872 86.6159 48.7803C86.5789 48.7598 86.5406 48.7416 86.5012 48.7258C86.4346 48.7001 86.3655 48.6812 86.2949 48.6694C85.9427 48.607 85.5241 48.711 85.3077 49.0209C85.2442 49.1172 85.1941 49.2215 85.1588 49.3308C85.1259 49.4394 85.1106 49.5523 85.1135 49.6655C85.1135 49.6655 84.9031 49.4398 84.8579 49.3932C84.5469 49.0734 84.2641 48.6882 83.8898 48.4426C83.7321 48.3311 83.5453 48.2665 83.3514 48.2565C83.1512 48.2503 82.9544 48.3076 82.7898 48.4199C82.5045 48.6094 82.3342 48.9267 82.336 49.2655C82.3502 49.493 82.4286 49.7121 82.5624 49.8982C82.8522 50.327 86.4519 54.0184 86.4519 54.0184L84.253 54.4224C83.6583 54.5214 83.2185 55.0888 83.2306 55.7413C83.2387 56.2206 83.7338 56.7622 84.1876 56.8424C84.6204 56.9187 85.1648 56.8355 85.6066 56.8078C86.0645 56.779 88.3126 56.6097 89.0281 56.5622C89.0644 56.5622 89.1006 56.5553 89.1368 56.5553C89.9744 56.5383 90.7673 56.1797 91.3256 55.5651L92.1689 54.6234C92.9076 53.7986 93.1894 52.6222 92.8885 51.4548C92.753 50.9523 92.5008 50.4876 92.1518 50.0972ZM91.8066 54.1164L90.9945 55.067C90.5306 55.6096 89.8825 55.8592 89.1942 55.9166C88.4897 55.979 87.7793 56.0483 87.0718 56.1146C86.5384 56.1641 86.0071 56.2414 85.4727 56.2849C85.0209 56.3216 84.3738 56.4523 84.0216 56.08C83.8847 55.9399 83.827 55.7424 83.8676 55.5522C84.0065 55.0046 84.6314 55.0571 85.5673 54.8521C86.0866 54.7363 86.6069 54.6214 87.1272 54.5125C87.2316 54.4882 87.3128 54.4075 87.3365 54.3046C87.3646 54.1988 87.3349 54.0863 87.258 54.0075C87.1433 53.8907 83.2447 49.8408 83.0877 49.6428C82.9066 49.415 82.8552 49.118 83.0998 48.9209C83.4399 48.6466 83.8123 49.0754 84.0417 49.3001C84.3436 49.5972 86.4338 51.7132 86.5113 51.7915C86.5623 51.8442 86.6339 51.8728 86.7079 51.87C86.7819 51.8671 86.851 51.8331 86.8977 51.7766C86.9472 51.7166 86.9726 51.6409 86.9692 51.5637C86.9664 51.4867 86.9349 51.4133 86.8806 51.3578L85.7243 50.1032C85.6263 50.0197 85.5672 49.9004 85.561 49.773C85.5547 49.6456 85.6017 49.5213 85.6911 49.4289C85.7758 49.3251 85.902 49.2626 86.0371 49.2575C86.1722 49.2524 86.303 49.3051 86.3955 49.4021L87.5589 50.5666C87.6096 50.62 87.6814 50.649 87.7555 50.6461C87.8297 50.6433 87.899 50.6088 87.9453 50.5517C88.0471 50.428 88.0398 50.2492 87.9282 50.1339L87.3345 49.5398C87.1316 49.3282 87.1199 49.0013 87.3073 48.7763C87.392 48.6728 87.5181 48.6103 87.6531 48.605C87.7881 48.5997 87.9189 48.652 88.0117 48.7486L88.6075 49.3427C88.6589 49.3941 88.7301 49.4215 88.8032 49.4181C88.8764 49.4147 88.9447 49.3808 88.9909 49.3249C89.093 49.2014 89.0861 49.0226 88.9748 48.907L88.9506 48.8823C88.7463 48.671 88.7346 48.3427 88.9235 48.1179C89.0064 48.0162 89.1295 47.9541 89.2618 47.9471C89.3942 47.9401 89.5233 47.9889 89.6168 48.0812L91.7563 50.4349C92.4613 51.2385 92.6618 52.3577 92.2786 53.35C92.168 53.6307 92.0083 53.8901 91.8066 54.1164Z" fill="white"/>
<path d="M82.116 56.995H82.0738C78.0122 56.4752 74.971 53.0254 75.0002 48.9745C75.0155 46.9145 75.8364 44.9393 77.2927 43.4592C80.293 40.3688 85.2393 40.1646 88.4922 42.9968C88.8535 43.2999 89.0563 43.7474 89.0438 44.2145C89.0312 44.6815 88.8049 45.118 88.4278 45.4019L88.3896 45.4306C87.7923 45.8769 86.9573 45.8441 86.398 45.3524C84.9298 44.0976 82.8525 43.8009 81.0822 44.5931C79.3119 45.3852 78.1739 47.1208 78.1701 49.0343C78.1663 50.9479 79.2973 52.6878 81.0644 53.4868C81.3147 53.6006 81.6054 53.5888 81.8453 53.4551C82.0967 53.319 82.2665 53.0728 82.3022 52.7927C82.3497 52.4083 82.1394 52.0377 81.7819 51.8758C81.316 51.6579 80.8813 51.3638 80.5924 50.943C78.9431 48.5478 80.7494 45.9505 83.0499 45.8931C84.0628 45.8709 85.0261 46.3242 85.6443 47.114C85.7541 47.2549 85.7276 47.4567 85.5849 47.5655C85.5168 47.6177 85.4302 47.641 85.3446 47.63C85.2589 47.619 85.1813 47.5748 85.129 47.5071C84.5645 46.7793 83.6379 46.4175 82.7198 46.5664C81.9144 46.6889 81.221 47.192 80.8642 47.913C80.5642 48.5161 80.5215 49.212 80.7454 49.8462C80.9693 50.4804 81.4414 51.0004 82.0567 51.2906C82.6121 51.5423 82.9658 52.0911 82.9603 52.6928C82.9549 53.2944 82.5914 53.837 82.0315 54.0789C81.6612 54.2423 81.0443 54.1908 80.679 54.0156C78.465 52.9541 77.2091 50.6271 77.5895 48.1596C77.9013 46.169 79.2921 44.5045 81.2166 43.8186C83.1412 43.1327 85.2928 43.5348 86.8277 44.8672C87.1532 45.1565 87.6415 45.1781 87.9921 44.9187L88.0303 44.89C88.2497 44.7237 88.3816 44.4692 88.3896 44.1969C88.3993 43.933 88.2885 43.6788 88.0877 43.5037C85.8874 41.5951 82.7571 41.1264 80.0795 42.3047C77.4018 43.4831 75.6701 46.0914 75.6493 48.9775C75.6159 52.7007 78.4057 55.8655 82.1563 56.3593C82.3263 56.3822 82.4495 56.5305 82.4384 56.699C82.4273 56.8676 82.2857 56.999 82.114 57L82.116 56.995Z" fill="white"/>
<path d="M96.6152 49.2759C96.6152 47.3917 97.7928 46.4174 99.5154 46.4174C100.189 46.4285 100.857 46.5508 101.49 46.7792V48.6017H100.3V47.5506C100.093 47.5005 99.8801 47.4752 99.667 47.4753C98.6159 47.4753 98.0973 48.1371 98.0973 49.2224C98.0973 50.2844 98.5909 50.9956 99.717 50.9956C100.321 50.9727 100.911 50.8103 101.44 50.5215V51.6315C100.838 51.9375 100.17 52.0919 99.4932 52.0809C97.7038 52.0809 96.6152 51.0957 96.6152 49.2759ZM102.3 50.8476H103.134V47.6507H102.3V46.5544H104.516V47.5411C104.794 47.0299 105.339 46.4174 106.324 46.4174H106.438V47.837H106.21C105.401 47.837 104.868 48.0001 104.564 48.1865V50.8449H105.515V51.9411H102.3V50.8476ZM106.935 49.2485C106.935 47.6137 107.885 46.4147 109.619 46.4147C111.352 46.4147 112.121 47.6137 112.121 49.0977C112.122 49.2989 112.105 49.4998 112.07 49.6979H108.379C108.518 50.5462 109.036 51.008 110.025 51.008C110.645 50.9902 111.25 50.8186 111.785 50.5092V51.5945C111.18 51.9214 110.499 52.089 109.809 52.0809C107.885 52.0809 106.935 50.8833 106.935 49.2485ZM108.372 48.7113H110.789C110.739 48.0755 110.486 47.4383 109.649 47.4383C108.812 47.4383 108.466 48.0426 108.372 48.7113ZM112.821 49.2485C112.821 47.5136 113.847 46.4147 115.391 46.4147C115.906 46.4028 116.411 46.5515 116.834 46.8395V44.8909H115.796V43.7617L118.265 43.7754V50.8449H119.099V51.9411H116.95V51.3451C116.523 51.8258 115.902 52.0953 115.254 52.0809C113.786 52.0809 112.81 50.9326 112.81 49.2485H112.821ZM116.834 50.5585V47.8179C116.522 47.5969 116.144 47.4832 115.76 47.4945C114.76 47.4945 114.279 48.1687 114.279 49.2293C114.279 50.1789 114.671 51.0107 115.658 51.0107C116.09 51.0056 116.504 50.8447 116.823 50.5585H116.834ZM119.735 50.8449H120.569V47.6507H119.735V46.5544H121.997V50.8476H122.831V51.9439H119.723L119.735 50.8449ZM121.204 43.8316C121.604 43.8311 121.965 44.0682 122.119 44.4324C122.272 44.7966 122.187 45.216 121.905 45.4948C121.622 45.7737 121.196 45.8569 120.827 45.7058C120.457 45.5546 120.216 45.1988 120.217 44.8045C120.219 44.2678 120.66 43.8331 121.204 43.8316ZM124.142 50.4585V47.663H123.192V46.5517H124.142V45.1814H125.573V46.5517H127.067V47.663H125.573V50.3831C125.573 50.8956 125.877 50.9956 126.308 50.9956C126.596 50.9955 126.883 50.9492 127.156 50.8586V51.8932C126.732 52.0133 126.293 52.0764 125.852 52.0809C124.499 52.0809 124.142 51.4451 124.142 50.4585ZM127.662 50.4338C127.662 49.1361 128.79 48.7606 130.208 48.7606H131.106V48.4249C131.106 47.7754 130.84 47.4876 129.928 47.4876C129.316 47.4994 128.708 47.5916 128.121 47.7617V46.7148C128.809 46.5209 129.52 46.4199 130.236 46.4147C131.704 46.4147 132.539 46.9272 132.539 48.3989V50.8449H133.35V51.9411H131.182V51.3314C130.736 51.8092 130.106 52.0806 129.447 52.0795C128.421 52.0809 127.662 51.4944 127.662 50.4338ZM131.106 50.4955V49.6349H130.272C129.525 49.6349 129.094 49.8226 129.094 50.3708C129.094 50.7079 129.26 51.082 129.88 51.082C130.409 51.082 130.815 50.7956 131.106 50.4955ZM133.714 53.3169H134.548V47.6507H133.714V46.5544H135.88V47.1382C136.306 46.6626 136.925 46.3977 137.568 46.4147C139.05 46.4147 140 47.526 140 49.2101C140 50.9449 138.999 52.0878 137.429 52.0878C136.914 52.1003 136.409 51.9515 135.986 51.663V53.3238H136.986V54.4338H133.718L133.714 53.3169ZM135.982 47.9494V50.6709C136.284 50.904 136.661 51.0235 137.045 51.008C138.045 51.008 138.526 50.3228 138.526 49.2608C138.526 48.3167 138.134 47.4944 137.151 47.4944C136.716 47.4918 136.297 47.6548 135.982 47.9494Z" fill="white"/>
<path d="M2.00984 50.76V49.776H4.27784C4.58984 49.776 4.86584 49.712 5.10584 49.584C5.35384 49.456 5.54584 49.276 5.68184 49.044C5.82584 48.812 5.89784 48.536 5.89784 48.216C5.89784 47.896 5.82584 47.62 5.68184 47.388C5.54584 47.156 5.35384 46.976 5.10584 46.848C4.86584 46.72 4.58984 46.656 4.27784 46.656H2.00984V45.672H4.34984C4.86184 45.672 5.31784 45.776 5.71784 45.984C6.12584 46.192 6.44584 46.488 6.67784 46.872C6.91784 47.248 7.03784 47.696 7.03784 48.216C7.03784 48.728 6.91784 49.176 6.67784 49.56C6.44584 49.936 6.12584 50.232 5.71784 50.448C5.31784 50.656 4.86184 50.76 4.34984 50.76H2.00984ZM1.25384 54V45.672H2.38184V54H1.25384ZM11.0751 54.12C10.5151 54.12 10.0111 53.988 9.56306 53.724C9.11506 53.46 8.75906 53.104 8.49506 52.656C8.23106 52.2 8.09906 51.692 8.09906 51.132C8.09906 50.58 8.23106 50.084 8.49506 49.644C8.75906 49.196 9.11506 48.84 9.56306 48.576C10.0111 48.312 10.5151 48.18 11.0751 48.18C11.6271 48.18 12.1271 48.312 12.5751 48.576C13.0311 48.832 13.3911 49.184 13.6551 49.632C13.9191 50.08 14.0511 50.58 14.0511 51.132C14.0511 51.692 13.9191 52.2 13.6551 52.656C13.3911 53.104 13.0311 53.46 12.5751 53.724C12.1271 53.988 11.6271 54.12 11.0751 54.12ZM11.0751 53.076C11.4351 53.076 11.7551 52.992 12.0351 52.824C12.3151 52.656 12.5351 52.428 12.6951 52.14C12.8551 51.844 12.9351 51.508 12.9351 51.132C12.9351 50.764 12.8511 50.436 12.6831 50.148C12.5231 49.86 12.3031 49.636 12.0231 49.476C11.7511 49.308 11.4351 49.224 11.0751 49.224C10.7151 49.224 10.3951 49.308 10.1151 49.476C9.83506 49.636 9.61506 49.86 9.45506 50.148C9.29506 50.436 9.21506 50.764 9.21506 51.132C9.21506 51.508 9.29506 51.844 9.45506 52.14C9.61506 52.428 9.83506 52.656 10.1151 52.824C10.3951 52.992 10.7151 53.076 11.0751 53.076ZM17.1959 54L14.9399 48.3H16.0679L17.6999 52.74H17.3399L18.9599 48.3H19.5839L21.2039 52.74H20.8439L22.4759 48.3H23.6039L21.3599 54H20.7239L19.0799 49.692H19.4759L17.8199 54H17.1959ZM27.4998 54.12C26.9318 54.12 26.4198 53.992 25.9638 53.736C25.5078 53.472 25.1478 53.116 24.8838 52.668C24.6198 52.22 24.4878 51.712 24.4878 51.144C24.4878 50.584 24.6158 50.08 24.8718 49.632C25.1358 49.184 25.4878 48.832 25.9278 48.576C26.3758 48.312 26.8758 48.18 27.4278 48.18C27.9558 48.18 28.4198 48.3 28.8198 48.54C29.2278 48.78 29.5438 49.112 29.7678 49.536C29.9998 49.96 30.1158 50.44 30.1158 50.976C30.1158 51.056 30.1118 51.144 30.1038 51.24C30.0958 51.328 30.0798 51.432 30.0558 51.552H25.2438V50.652H29.4798L29.0838 51C29.0838 50.616 29.0158 50.292 28.8798 50.028C28.7438 49.756 28.5518 49.548 28.3038 49.404C28.0558 49.252 27.7558 49.176 27.4038 49.176C27.0358 49.176 26.7118 49.256 26.4318 49.416C26.1518 49.576 25.9358 49.8 25.7838 50.088C25.6318 50.376 25.5558 50.716 25.5558 51.108C25.5558 51.508 25.6358 51.86 25.7958 52.164C25.9558 52.46 26.1838 52.692 26.4798 52.86C26.7758 53.02 27.1158 53.1 27.4998 53.1C27.8198 53.1 28.1118 53.044 28.3758 52.932C28.6478 52.82 28.8798 52.652 29.0718 52.428L29.7678 53.136C29.4958 53.456 29.1598 53.7 28.7598 53.868C28.3678 54.036 27.9478 54.12 27.4998 54.12ZM31.7534 54V48.3H32.8334V54H31.7534ZM32.8334 50.748L32.4254 50.568C32.4254 49.84 32.5934 49.26 32.9294 48.828C33.2654 48.396 33.7494 48.18 34.3814 48.18C34.6694 48.18 34.9294 48.232 35.1614 48.336C35.3934 48.432 35.6094 48.596 35.8094 48.828L35.1014 49.56C34.9814 49.432 34.8494 49.34 34.7054 49.284C34.5614 49.228 34.3934 49.2 34.2014 49.2C33.8014 49.2 33.4734 49.328 33.2174 49.584C32.9614 49.84 32.8334 50.228 32.8334 50.748ZM39.4823 54.12C38.9143 54.12 38.4023 53.992 37.9463 53.736C37.4903 53.472 37.1303 53.116 36.8663 52.668C36.6023 52.22 36.4703 51.712 36.4703 51.144C36.4703 50.584 36.5983 50.08 36.8543 49.632C37.1183 49.184 37.4703 48.832 37.9103 48.576C38.3583 48.312 38.8583 48.18 39.4103 48.18C39.9383 48.18 40.4023 48.3 40.8023 48.54C41.2103 48.78 41.5263 49.112 41.7503 49.536C41.9823 49.96 42.0983 50.44 42.0983 50.976C42.0983 51.056 42.0943 51.144 42.0863 51.24C42.0783 51.328 42.0623 51.432 42.0383 51.552H37.2263V50.652H41.4623L41.0663 51C41.0663 50.616 40.9983 50.292 40.8623 50.028C40.7263 49.756 40.5343 49.548 40.2863 49.404C40.0383 49.252 39.7383 49.176 39.3863 49.176C39.0183 49.176 38.6943 49.256 38.4143 49.416C38.1343 49.576 37.9183 49.8 37.7663 50.088C37.6143 50.376 37.5383 50.716 37.5383 51.108C37.5383 51.508 37.6183 51.86 37.7783 52.164C37.9383 52.46 38.1663 52.692 38.4623 52.86C38.7583 53.02 39.0983 53.1 39.4823 53.1C39.8023 53.1 40.0943 53.044 40.3583 52.932C40.6303 52.82 40.8623 52.652 41.0543 52.428L41.7503 53.136C41.4783 53.456 41.1423 53.7 40.7423 53.868C40.3503 54.036 39.9303 54.12 39.4823 54.12ZM46.1479 54.12C45.6199 54.12 45.1479 53.992 44.7319 53.736C44.3159 53.472 43.9839 53.116 43.7359 52.668C43.4959 52.22 43.3759 51.716 43.3759 51.156C43.3759 50.596 43.4959 50.092 43.7359 49.644C43.9839 49.196 44.3159 48.84 44.7319 48.576C45.1479 48.312 45.6199 48.18 46.1479 48.18C46.5719 48.18 46.9559 48.272 47.2999 48.456C47.6439 48.632 47.9199 48.88 48.1279 49.2C48.3439 49.512 48.4639 49.876 48.4879 50.292V52.008C48.4639 52.416 48.3479 52.78 48.1399 53.1C47.9319 53.42 47.6559 53.672 47.3119 53.856C46.9679 54.032 46.5799 54.12 46.1479 54.12ZM46.3279 53.1C46.6879 53.1 46.9999 53.016 47.2639 52.848C47.5359 52.68 47.7479 52.452 47.8999 52.164C48.0519 51.868 48.1279 51.532 48.1279 51.156C48.1279 50.764 48.0479 50.424 47.8879 50.136C47.7359 49.848 47.5239 49.62 47.2519 49.452C46.9879 49.284 46.6759 49.2 46.3159 49.2C45.9559 49.2 45.6399 49.284 45.3679 49.452C45.0959 49.62 44.8799 49.852 44.7199 50.148C44.5679 50.436 44.4919 50.768 44.4919 51.144C44.4919 51.528 44.5679 51.868 44.7199 52.164C44.8799 52.452 45.0959 52.68 45.3679 52.848C45.6479 53.016 45.9679 53.1 46.3279 53.1ZM49.1479 54H48.0559V52.464L48.2599 51.072L48.0559 49.692V45.432H49.1479V54ZM57.1364 54.12C56.7044 54.12 56.3124 54.032 55.9604 53.856C55.6164 53.672 55.3404 53.42 55.1324 53.1C54.9244 52.78 54.8084 52.416 54.7844 52.008V50.292C54.8084 49.876 54.9244 49.512 55.1324 49.2C55.3484 48.88 55.6284 48.632 55.9724 48.456C56.3244 48.272 56.7124 48.18 57.1364 48.18C57.6564 48.18 58.1244 48.312 58.5404 48.576C58.9644 48.84 59.2964 49.196 59.5364 49.644C59.7764 50.092 59.8964 50.596 59.8964 51.156C59.8964 51.716 59.7764 52.22 59.5364 52.668C59.2964 53.116 58.9644 53.472 58.5404 53.736C58.1244 53.992 57.6564 54.12 57.1364 54.12ZM56.9564 53.1C57.3164 53.1 57.6324 53.016 57.9044 52.848C58.1764 52.68 58.3924 52.452 58.5524 52.164C58.7124 51.868 58.7924 51.528 58.7924 51.144C58.7924 50.768 58.7124 50.432 58.5524 50.136C58.3924 49.84 58.1764 49.612 57.9044 49.452C57.6324 49.284 57.3204 49.2 56.9684 49.2C56.6084 49.2 56.2924 49.284 56.0204 49.452C55.7484 49.612 55.5364 49.84 55.3844 50.136C55.2324 50.432 55.1564 50.772 55.1564 51.156C55.1564 51.532 55.2284 51.868 55.3724 52.164C55.5244 52.452 55.7364 52.68 56.0084 52.848C56.2884 53.016 56.6044 53.1 56.9564 53.1ZM54.1364 54V45.432H55.2164V49.692L55.0124 51.072L55.2164 52.464V54H54.1364ZM63.2301 54.048L60.7581 48.3H61.9581L63.7941 52.8H63.4101L65.3421 48.3H66.5421L63.8781 54.048H63.2301ZM61.5981 56.388L63.2781 52.944L63.8781 54.048L62.7981 56.388H61.5981Z" fill="white"/>
</svg>
