<svg width="47" height="47" viewBox="0 0 47 47" fill="none" xmlns="http://www.w3.org/2000/svg">
<path d="M41.7536 19.9172C41.7536 22.7691 39.4521 25.0809 36.6129 25.0809C33.7741 25.0809 31.4727 22.7691 31.4727 19.9172C31.4727 17.0657 33.7741 14.7539 36.6129 14.7539C39.4521 14.7539 41.7536 17.0657 41.7536 19.9172Z" fill="#A4A4A4"/>
<path d="M42.1736 7.48242H12.4841C9.86129 7.48242 7.6582 9.69538 7.6582 12.33V42.1525C7.6582 44.787 9.86129 47 12.4841 47H42.1736C44.7964 47 46.9995 44.787 46.9995 42.1525L46.9992 12.33C46.9992 9.59024 44.7961 7.48278 42.1736 7.48278L42.1736 7.48242ZM44.9011 39.7283L33.571 28.4522L29.3745 32.6675L20.4571 23.7101L9.75644 34.4588V12.3292C9.75644 10.8541 10.9103 9.58952 12.4839 9.58952H42.1734C43.642 9.58952 44.9009 10.7486 44.9009 12.3292L44.9011 39.7283Z" fill="#A4A4A4"/>
<path d="M5.56041 37.4098H4.82593C3.35733 37.4098 2.09842 36.1452 2.09842 34.67V4.84754C2.09842 3.37236 3.35733 2.10782 4.82593 2.10782H34.5154C35.984 2.10782 37.2429 3.37236 37.2429 4.84754V5.37432H39.341L39.3413 4.84754C39.3413 2.21295 37.1382 0 34.5154 0H4.82592C2.20308 0 0 2.21295 0 4.84754V34.67C0 37.3046 2.20308 39.5176 4.82592 39.5176H5.5604L5.56041 37.4098Z" fill="#A4A4A4"/>
</svg>
